<svg width="393" height="36" fill="none" xmlns="http://www.w3.org/2000/svg"><path d="M.274 35h7.392V24.728l3.888-4.032L21.97 35h8.88L16.546 15.656 30.226 1.4h-8.928L7.666 16.088V1.4H.274V35zm36.046 0h7.535l3.072-7.536h14.208L64.207 35h7.728l-14.4-33.84H50.72L36.32 35zm13.247-14.064l4.464-10.896 4.464 10.896h-8.928zm46.373 14.64c6.145 0 10.897-2.4 14.353-5.328V15.656H95.701v6.384h7.44v4.8c-1.872 1.344-4.272 2.016-6.96 2.016-5.952 0-10.176-4.512-10.176-10.656v-.096c0-5.712 4.272-10.464 9.648-10.464 3.888 0 6.192 1.248 8.784 3.408l4.656-5.616c-3.504-2.976-7.152-4.608-13.2-4.608-10.176 0-17.616 7.824-17.616 17.376v.096c0 9.936 7.2 17.28 17.664 17.28zM119.325 35h7.536l3.072-7.536h14.208L147.213 35h7.728l-14.4-33.84h-6.816L119.325 35zm13.248-14.064l4.464-10.896 4.464 10.896h-8.928zM164.927 35h7.392V24.248h5.808l7.2 10.752h8.64l-8.208-12c4.272-1.584 7.2-4.992 7.2-10.416v-.096c0-3.168-1.008-5.808-2.88-7.68-2.208-2.208-5.52-3.408-9.792-3.408h-15.36V35zm7.392-17.28V8.072h7.344c3.6 0 5.808 1.632 5.808 4.8v.096c0 2.832-2.064 4.752-5.664 4.752h-7.488zM204.751 35h7.392V1.4h-7.392V35zm39.779 0h15.984c7.584 0 12.576-3.072 12.576-9.216v-.096c0-4.512-2.4-6.768-6.288-8.256 2.4-1.344 4.416-3.456 4.416-7.248v-.096c0-2.304-.768-4.176-2.304-5.712-1.92-1.92-4.944-2.976-8.784-2.976h-15.6V35zm19.344-23.568c0 2.496-2.064 3.552-5.328 3.552h-6.816V7.88h7.296c3.12 0 4.848 1.248 4.848 3.456v.096zm1.872 13.344v.096c0 2.496-1.968 3.648-5.232 3.648h-8.784v-7.392h8.544c3.792 0 5.472 1.392 5.472 3.648zM283.971 35h24.144v-6.72h-16.752V1.4h-7.392V35zm48.917.576c10.368 0 17.904-7.824 17.904-17.376v-.096c0-9.552-7.44-17.28-17.808-17.28-10.368 0-17.904 7.824-17.904 17.376v.096c0 9.552 7.44 17.28 17.808 17.28zm.096-6.816c-5.952 0-10.176-4.8-10.176-10.56v-.096c0-5.76 4.128-10.464 10.08-10.464s10.176 4.8 10.176 10.56v.096c0 5.76-4.128 10.464-10.08 10.464zm45.341 6.816c6.144 0 10.896-2.4 14.352-5.328V15.656h-14.592v6.384h7.44v4.8c-1.872 1.344-4.272 2.016-6.96 2.016-5.952 0-10.176-4.512-10.176-10.656v-.096c0-5.712 4.272-10.464 9.648-10.464 3.888 0 6.192 1.248 8.784 3.408l4.656-5.616c-3.504-2.976-7.152-4.608-13.2-4.608-10.176 0-17.616 7.824-17.616 17.376v.096c0 9.936 7.2 17.28 17.664 17.28z" fill="#FF725C"/></svg>