<svg width="189" height="24" fill="none" xmlns="http://www.w3.org/2000/svg"><path d="M21.79 12.41a48.572 48.572 0 01-11.64 11.38c-.9.61-1.42-.23-.88-.91A66.688 66.688 0 0120.91 11.5c.75-.5 1.35.24.88.91zm-4.2-4.35c.56-.78.05-1.57-.88-.91-.56.39-9.36 8.22-11 9.92-1.6-1.38-3.29-2.82-3.69-3.14a.64.64 0 00-.9.07.65.65 0 000 .82A44.415 44.415 0 005 19.54a1.07 1.07 0 001.48.23l.14-.12A67.208 67.208 0 0017.59 8.06zm-11.74 3a62 62 0 007.57-6.63 1.09 1.09 0 000-1.54l-.06-.05c-.27-.19-2.89-2.49-3.18-2.7-.6-.42-1.31.17-.91.89s1.12 1.86 1.56 2.55c-.37.33-5.31 5.92-5.83 6.61-.52.69 0 1.52.88.91l-.03-.04z" fill="#FF6200"/><path d="M28.28 5.55h2.87v5.76l5.27-5.76h3.46l-5.3 5.59 5.54 7.58h-3.44l-4-5.6-1.54 1.58v4h-2.86V5.55zm18.59-.09h2.64l5.57 13.26h-3l-1.18-2.95h-5.5l-1.19 2.95h-2.92l5.58-13.26zm3 7.75l-1.72-4.27-1.73 4.27h3.45zm6.73-1a6.72 6.72 0 016.63-6.81h.19a7.09 7.09 0 015.12 1.81l-1.8 2.2A4.81 4.81 0 0063.35 8a3.94 3.94 0 00-3.74 4.1 3.93 3.93 0 003.66 4.17h.28a4.55 4.55 0 002.7-.79v-1.85h-2.88v-2.5H69v5.72a8.32 8.32 0 01-5.56 2.09 6.55 6.55 0 01-6.85-6.24 4.685 4.685 0 010-.53l.01.04zm20.55-6.75h2.64l5.58 13.26h-3l-1.19-2.95h-5.5l-1.18 2.95h-2.92l5.57-13.26zm3 7.75l-1.72-4.27-1.72 4.27h3.44zm8.15-7.66h5.94a5.15 5.15 0 013.8 1.34 4.12 4.12 0 011.11 3A4.09 4.09 0 0196.37 14l3.18 4.7h-3.34l-2.79-4.2h-2.25v4.22h-2.86L88.3 5.55zM94.07 12c1.39 0 2.19-.75 2.19-1.86 0-1.24-.85-1.88-2.25-1.88h-2.84V12h2.9zm8.74-6.4h2.86v13.12h-2.86V5.6zM120.73 18a7.998 7.998 0 01-3.29.6c-3.51 0-6.14-2.22-6.14-6.31a6.175 6.175 0 011.786-4.725A6.168 6.168 0 01117.8 5.75a6.711 6.711 0 013 .55l-.39 1.31a5.918 5.918 0 00-2.51-.51c-2.97-.02-4.9 1.9-4.9 5.12 0 3 1.76 5 4.78 5a6.512 6.512 0 002.63-.51l.32 1.29zm9.39-4.15a4.384 4.384 0 01-4.45 4.76 4.26 4.26 0 01-4.29-4.61c0-3 2-4.74 4.43-4.74 2.43 0 4.31 1.85 4.31 4.57v.02zm-7.09.1c0 2 1.12 3.44 2.71 3.44 1.59 0 2.72-1.46 2.72-3.49 0-1.51-.76-3.42-2.69-3.42S123 12.24 123 13.93l.03.02zm8.68-2.07c0-.93 0-1.67-.07-2.41h1.43l.09 1.47h.05a3.3 3.3 0 012.95-1.68c1.23 0 3.15.74 3.15 3.81v5.33h-1.62v-5.17c0-1.44-.54-2.65-2.06-2.65a2.331 2.331 0 00-2.19 1.66 2.478 2.478 0 00-.11.76v5.38h-1.62v-6.5zm9.56 4.87a4.517 4.517 0 002.16.63c1.18 0 1.74-.58 1.74-1.33 0-.75-.48-1.19-1.67-1.63-1.61-.59-2.37-1.47-2.37-2.54 0-1.44 1.17-2.62 3.09-2.62a4.368 4.368 0 012.19.55L146 11a3.6 3.6 0 00-1.84-.52c-1 0-1.48.55-1.48 1.22 0 .67.53 1.07 1.7 1.53 1.54.57 2.34 1.35 2.34 2.68 0 1.59-1.23 2.7-3.34 2.7a5.079 5.079 0 01-2.51-.63l.4-1.23zm14.56-.79c0 .93 0 1.74.08 2.44h-1.44l-.09-1.46a3.342 3.342 0 01-3 1.67c-1.4 0-3.08-.79-3.08-3.92V9.45h1.62v4.93c0 1.71.53 2.86 2 2.86a2.358 2.358 0 002.15-1.49c.092-.267.139-.547.14-.83V9.45h1.62v6.51zm2.25-10.68h1.62v13.1h-1.62V5.28zm5.85 1.61v2.56h2.33v1.23h-2.33v4.81c0 1.12.32 1.75 1.23 1.75.317.003.634-.037.94-.12l.07 1.23a4 4 0 01-1.45.23 2.26 2.26 0 01-1.75-.69 3.422 3.422 0 01-.63-2.33v-4.88H161V9.45h1.39V7.29l1.54-.4zm5.52 0a1 1 0 11-.067-.362c.048.125.071.258.067.392v-.03zm-1.82 11.46v-8.9h1.62v8.93l-1.62-.03zm3.86-6.52c0-.93 0-1.67-.07-2.41h1.44l.09 1.47a3.31 3.31 0 013-1.68c1.22 0 3.15.74 3.15 3.81v5.33h-1.62v-5.12c0-1.44-.55-2.65-2.07-2.65a2.34 2.34 0 00-2.19 1.66 2.833 2.833 0 00-.11.76v5.38h-1.62v-6.55zm17.14-2.41c0 .63-.07 1.35-.07 2.44v5.19c0 2.07-.43 3.31-1.28 4.09a4.79 4.79 0 01-3.28 1.1 5.8 5.8 0 01-3-.73l.41-1.25a4.998 4.998 0 002.63.71c1.66 0 2.88-.86 2.88-3.13v-1a3.161 3.161 0 01-2.84 1.5c-2.23 0-3.81-1.89-3.81-4.37 0-3 2-4.74 4-4.74a2.997 2.997 0 012.79 1.54l.07-1.33 1.5-.02zM186.94 13a2.4 2.4 0 00-.09-.73 2.354 2.354 0 00-2.28-1.73c-1.55 0-2.66 1.32-2.66 3.39 0 1.75.9 3.22 2.64 3.22a2.382 2.382 0 002.26-1.67c.088-.282.132-.575.13-.87V13z" fill="#233241"/></svg>