<svg width="162" height="24" fill="none" xmlns="http://www.w3.org/2000/svg"><g clip-path="url(#clip0)"><path d="M20.79 12.41A48.571 48.571 0 019.15 23.79c-.9.61-1.42-.23-.88-.91A66.688 66.688 0 0119.91 11.5c.75-.5 1.35.24.88.91zm-4.2-4.35c.56-.78.05-1.57-.88-.91-.56.39-9.36 8.22-11 9.92-1.6-1.38-3.29-2.82-3.69-3.14a.64.64 0 00-.9.07.65.65 0 000 .82A44.415 44.415 0 004 19.54a1.07 1.07 0 001.48.23l.14-.12A67.21 67.21 0 0016.59 8.06zm-11.74 3a62 62 0 007.57-6.63 1.09 1.09 0 000-1.54l-.06-.05C12.09 2.65 9.47.35 9.18.14c-.6-.42-1.31.17-.91.89s1.12 1.86 1.56 2.55C9.46 3.91 4.52 9.5 4 10.19c-.52.69 0 1.52.88.91l-.03-.04z" fill="#FF6200"/><path d="M27.28 5.55h2.87v5.76l5.27-5.76h3.46l-5.3 5.59 5.54 7.58h-3.44l-4-5.6-1.54 1.58v4h-2.86V5.55zm18.59-.09h2.64l5.57 13.26h-3l-1.18-2.95h-5.5l-1.19 2.95h-2.92l5.58-13.26zm3 7.75l-1.72-4.27-1.73 4.27h3.45zm6.73-1a6.72 6.72 0 016.63-6.81h.19a7.09 7.09 0 015.12 1.81l-1.8 2.2A4.81 4.81 0 0062.35 8a3.94 3.94 0 00-3.74 4.1 3.93 3.93 0 003.66 4.17h.28a4.55 4.55 0 002.7-.79v-1.85h-2.88v-2.5H68v5.72a8.32 8.32 0 01-5.56 2.09 6.55 6.55 0 01-6.85-6.24 4.685 4.685 0 010-.53l.01.04zm20.55-6.75h2.64l5.58 13.26h-3l-1.19-2.95h-5.5l-1.18 2.95h-2.92l5.57-13.26zm3 7.75l-1.72-4.27-1.72 4.27h3.44zm8.15-7.66h5.94a5.15 5.15 0 013.8 1.34 4.12 4.12 0 011.11 3A4.09 4.09 0 0195.37 14l3.18 4.7h-3.34l-2.79-4.2h-2.25v4.22h-2.86L87.3 5.55zM93.07 12c1.39 0 2.19-.75 2.19-1.86 0-1.24-.85-1.88-2.25-1.88h-2.84V12h2.9zm8.74-6.4h2.86v13.12h-2.86V5.6zm9.19.51a16.56 16.56 0 013.1-.27 5.11 5.11 0 013.6 1 3.123 3.123 0 011 2.37 3.27 3.27 0 01-2.35 3.17 3.152 3.152 0 011.83 2.62 20.253 20.253 0 001 3.42h-1.67a15.987 15.987 0 01-.82-3c-.37-1.71-1-2.37-2.5-2.42h-1.52v5.4H111V6.11zm1.61 5.67h1.64c1.72 0 2.82-.94 2.82-2.37 0-1.62-1.17-2.32-2.87-2.32a6.998 6.998 0 00-1.59.14v4.55zm9.27 2.43a2.86 2.86 0 003.12 3.11 6 6 0 002.47-.46l.29 1.15a7.202 7.202 0 01-3 .57 4.175 4.175 0 01-3.229-1.25 4.16 4.16 0 01-1.171-3.26c0-2.7 1.59-4.82 4.2-4.82 2.92 0 3.68 2.56 3.68 4.2a4.6 4.6 0 01-.05.76h-6.31zm4.76-1.16c0-1-.42-2.63-2.24-2.63a2.68 2.68 0 00-2.5 2.63h4.74zm3.59-.69c0-1.14 0-2.06-.08-2.91h1.45l.09 1.53a3.486 3.486 0 013.17-1.73c2.17 0 3.8 1.82 3.8 4.54 0 3.22-2 4.8-4.07 4.8a3.113 3.113 0 01-2.75-1.41v4.87h-1.61v-9.69zm1.61 2.39a2.501 2.501 0 002.5 2.57c1.72 0 2.72-1.41 2.72-3.46 0-1.78-.94-3.32-2.66-3.32a2.6 2.6 0 00-2.46 2 2.946 2.946 0 00-.1.66v1.55zm17-.91a4.356 4.356 0 01-1.164 3.369 4.374 4.374 0 01-3.286 1.381 4.252 4.252 0 01-4.29-4.6 4.364 4.364 0 011.165-3.358 4.367 4.367 0 013.275-1.382c2.6 0 4.33 1.86 4.33 4.59h-.03zm-7.09.1c0 2 1.13 3.44 2.71 3.44s2.73-1.46 2.73-3.49c0-1.51-.77-3.42-2.7-3.42-1.93 0-2.71 1.78-2.71 3.47h-.03zm9.14-1.7c0-1.06 0-2-.07-2.79h1.42l.06 1.76h.06a2.733 2.733 0 012.49-2c.152-.005.303.012.45.05v1.52a3.007 3.007 0 00-.55 0 2.283 2.283 0 00-2.18 2.08 4.397 4.397 0 00-.06.76v4.77h-1.62v-6.15zm8.44-5.36v2.57h2.34v1.23h-2.34v4.82c0 1.11.32 1.74 1.23 1.74.317.006.633-.03.94-.11l.08 1.23c-.467.156-.958.23-1.45.22a2.288 2.288 0 01-1.76-.68 3.45 3.45 0 01-.63-2.34v-4.88h-1.38V9.45h1.38V7.3l1.59-.42z" fill="#233241"/></g><defs><clipPath id="clip0"><path fill="#fff" d="M0 0h161.7v24H0z"/></clipPath></defs></svg>