<svg width="184" height="24" fill="none" xmlns="http://www.w3.org/2000/svg"><g clip-path="url(#clip0)"><path d="M20.79 12.41A48.571 48.571 0 019.15 23.79c-.9.61-1.42-.23-.88-.91A66.688 66.688 0 0119.91 11.5c.75-.5 1.35.24.88.91zm-4.2-4.35c.56-.78.05-1.57-.88-.91-.56.39-9.36 8.22-11 9.92-1.6-1.38-3.29-2.82-3.69-3.14a.64.64 0 00-.9.07.65.65 0 000 .82A44.415 44.415 0 004 19.54a1.07 1.07 0 001.48.23l.14-.12A67.21 67.21 0 0016.59 8.06zm-11.74 3a62 62 0 007.57-6.63 1.09 1.09 0 000-1.54l-.06-.05C12.09 2.65 9.47.35 9.18.14c-.6-.42-1.31.17-.91.89s1.12 1.86 1.56 2.55C9.46 3.91 4.52 9.5 4 10.19c-.52.69 0 1.52.88.91l-.03-.04z" fill="#FF6200"/><path d="M27.28 5.55h2.87v5.76l5.27-5.76h3.46l-5.3 5.59 5.54 7.58h-3.44l-4-5.6-1.54 1.58v4h-2.86V5.55zm18.59-.09h2.64l5.57 13.26h-3l-1.18-2.95h-5.5l-1.19 2.95h-2.92l5.58-13.26zm3 7.75l-1.72-4.27-1.73 4.27h3.45zm6.73-1a6.72 6.72 0 016.63-6.81h.19a7.09 7.09 0 015.12 1.81l-1.8 2.2A4.81 4.81 0 0062.35 8a3.94 3.94 0 00-3.74 4.1 3.93 3.93 0 003.66 4.17h.28a4.55 4.55 0 002.7-.79v-1.85h-2.88v-2.5H68v5.72a8.32 8.32 0 01-5.56 2.09 6.55 6.55 0 01-6.85-6.24 4.685 4.685 0 010-.53l.01.04zm20.55-6.75h2.64l5.58 13.26h-3l-1.19-2.95h-5.5l-1.18 2.95h-2.92l5.57-13.26zm3 7.75l-1.72-4.27-1.72 4.27h3.44zm8.15-7.66h5.94a5.15 5.15 0 013.8 1.34 4.12 4.12 0 011.11 3A4.09 4.09 0 0195.37 14l3.18 4.7h-3.34l-2.79-4.2h-2.25v4.22h-2.86L87.3 5.55zM93.07 12c1.39 0 2.19-.75 2.19-1.86 0-1.24-.85-1.88-2.25-1.88h-2.84V12h2.9zm8.74-6.4h2.86v13.12h-2.86V5.6zm19.72 7.32c-.09-1.73-.21-3.83-.2-5.37-.43 1.44-.94 3-1.56 4.72l-2.2 6h-1.27l-2-5.93c-.59-1.76-1.07-3.36-1.42-4.83 0 1.55-.12 3.63-.24 5.49l-.33 5.35h-1.61l.87-12.45h2.05l2.12 6c.52 1.53.93 2.9 1.26 4.2.32-1.26.76-2.63 1.31-4.19l2.22-6h2.06l.77 12.45h-1.58l-.25-5.44zm8.91 5.47l-.15-1.13a3.317 3.317 0 01-2.73 1.33 2.549 2.549 0 01-2.78-2.59c0-2.17 1.92-3.35 5.37-3.33v-.19a1.83 1.83 0 00-2-2.06 4.41 4.41 0 00-2.33.66l-.4-1.08a5.68 5.68 0 013-.78c2.73 0 3.4 1.87 3.4 3.66v3.34a14.05 14.05 0 00.13 2.14l-1.51.03zm-.26-4.56c-1.76 0-3.77.28-3.77 2a1.434 1.434 0 00.4 1.131 1.42 1.42 0 001.12.429 2.239 2.239 0 002.18-1.5c.047-.166.071-.338.07-.51v-1.55zm3.74-1.59c0-1.06 0-2-.07-2.79h1.42l.07 1.76a2.732 2.732 0 012.49-2 1.55 1.55 0 01.45.05v1.52a3.007 3.007 0 00-.55 0 2.272 2.272 0 00-2.17 2.08c-.05.25-.073.505-.07.76v4.77h-1.62l.05-6.15zm7.27 1.31c.22-.31.53-.71.78-1l2.63-3.08h2l-3.45 3.68 3.93 5.26h-2L142 14.1l-.84.93v3.36h-1.61V5.27h1.61l.03 8.28zm7.52.67a2.85 2.85 0 00.814 2.257 2.856 2.856 0 002.246.843 6.001 6.001 0 002.48-.46l.28 1.15a7.202 7.202 0 01-3 .57 4.175 4.175 0 01-3.229-1.25 4.16 4.16 0 01-1.171-3.26c0-2.7 1.6-4.82 4.21-4.82 2.91 0 3.68 2.56 3.68 4.2.007.258-.013.516-.06.77h-6.25zm4.76-1.17a2.308 2.308 0 00-.525-1.822 2.306 2.306 0 00-1.715-.808 2.68 2.68 0 00-2.5 2.63h4.74zm5.08-6.17v2.57h2.34v1.23h-2.34v4.82c0 1.11.32 1.74 1.23 1.74.317.006.633-.03.94-.11l.08 1.23c-.47.157-.964.231-1.46.22a2.28 2.28 0 01-1.75-.68 3.45 3.45 0 01-.63-2.34v-4.88h-1.39V9.45H157V7.3l1.55-.42zm5.52 0a.998.998 0 01-1 1 1 1 0 111-1zm-1.82 11.46V9.45h1.62v8.94l-1.62-.05zm3.87-6.52c0-.94 0-1.68-.08-2.42h1.44l.09 1.47a3.304 3.304 0 013-1.67c1.23 0 3.15.74 3.15 3.81v5.33h-1.62v-5.1c0-1.45-.54-2.66-2.06-2.66a2.36 2.36 0 00-2.2 1.67 2.833 2.833 0 00-.11.76v5.38h-1.61v-6.57zm17.13-2.42c0 .64-.07 1.36-.07 2.45v5.19c0 2.07-.42 3.31-1.28 4.09a4.828 4.828 0 01-3.25 1.07 5.809 5.809 0 01-3-.73l.41-1.25a5.08 5.08 0 002.63.71c1.66 0 2.88-.87 2.88-3.13v-1a3.174 3.174 0 01-2.84 1.51c-2.23 0-3.81-1.9-3.81-4.37 0-3 2-4.74 4-4.74a3.002 3.002 0 012.78 1.54l.07-1.34h1.48zm-1.69 3.6a2.4 2.4 0 00-.09-.73 2.354 2.354 0 00-2.28-1.73c-1.55 0-2.66 1.31-2.66 3.39 0 1.75.9 3.22 2.64 3.22a2.372 2.372 0 002.26-1.68c.089-.278.132-.568.13-.86V13z" fill="#233241"/></g><defs><clipPath id="clip0"><path d="M0 0h183.25v24H0V0z" fill="#fff"/></clipPath></defs></svg>