<svg width="141" height="24" fill="none" xmlns="http://www.w3.org/2000/svg"><g clip-path="url(#clip0)"><path d="M20.79 12.41A48.571 48.571 0 019.15 23.79c-.9.61-1.42-.23-.88-.91A66.688 66.688 0 0119.91 11.5c.75-.5 1.35.24.88.91zm-4.2-4.35c.56-.78.05-1.57-.88-.91-.56.39-9.36 8.22-11 9.92-1.6-1.38-3.29-2.82-3.69-3.14a.64.64 0 00-.9.07.65.65 0 000 .82A44.415 44.415 0 004 19.54a1.07 1.07 0 001.48.23l.14-.12A67.21 67.21 0 0016.59 8.06zm-11.74 3a62 62 0 007.57-6.63 1.09 1.09 0 000-1.54l-.06-.05C12.09 2.65 9.47.35 9.18.14c-.6-.42-1.31.17-.91.89s1.12 1.86 1.56 2.55C9.46 3.91 4.52 9.5 4 10.19c-.52.69 0 1.52.88.91l-.03-.04z" fill="#FF6200"/><path d="M27.28 5.55h2.87v5.76l5.27-5.76h3.46l-5.3 5.59 5.54 7.58h-3.44l-4-5.6-1.54 1.58v4h-2.86V5.55zm18.59-.09h2.64l5.57 13.26h-3l-1.18-2.95h-5.5l-1.19 2.95h-2.92l5.58-13.26zm3 7.75l-1.72-4.27-1.73 4.27h3.45zm6.73-1a6.72 6.72 0 016.63-6.81h.19a7.09 7.09 0 015.12 1.81l-1.8 2.2A4.81 4.81 0 0062.35 8a3.94 3.94 0 00-3.74 4.1 3.93 3.93 0 003.66 4.17h.28a4.55 4.55 0 002.7-.79v-1.85h-2.88v-2.5H68v5.72a8.32 8.32 0 01-5.56 2.09 6.55 6.55 0 01-6.85-6.24 4.685 4.685 0 010-.53l.01.04zm20.55-6.75h2.64l5.58 13.26h-3l-1.19-2.95h-5.5l-1.18 2.95h-2.92l5.57-13.26zm3 7.75l-1.72-4.27-1.72 4.27h3.44zm8.15-7.66h5.94a5.15 5.15 0 013.8 1.34 4.12 4.12 0 011.11 3A4.09 4.09 0 0195.37 14l3.18 4.7h-3.34l-2.79-4.2h-2.25v4.22h-2.86L87.3 5.55zM93.07 12c1.39 0 2.19-.75 2.19-1.86 0-1.24-.85-1.88-2.25-1.88h-2.84V12h2.9zm8.74-6.4h2.86v13.12h-2.86V5.6zm9 10.83a5.619 5.619 0 002.88.81c1.64 0 2.61-.86 2.61-2.12 0-1.26-.67-1.84-2.36-2.47-2-.72-3.29-1.79-3.29-3.53 0-1.94 1.61-3.38 4-3.38a5.742 5.742 0 012.75.6l-.4 1.32a4.8 4.8 0 00-2.35-.59c-1.72 0-2.36 1-2.36 1.86 0 1.16.76 1.73 2.48 2.39 2.11.83 3.17 1.85 3.17 3.67 0 1.82-1.41 3.59-4.36 3.59a6.39 6.39 0 01-3.18-.81l.41-1.34zm15.77-3.88h-4.83v4.5h5.4v1.34h-7V5.94h6.74v1.34h-5.12v3.94h4.83l-.02 1.33zm13.3-.51c0 4.27-2.61 6.55-5.78 6.55-3.17 0-5.6-2.55-5.6-6.32 0-3.94 2.44-6.54 5.77-6.54 3.33 0 5.61 2.61 5.61 6.27v.04zm-9.68.2c0 2.66 1.45 5 4 5s4-2.34 4-5.17c0-2.48-1.29-5.07-4-5.07s-4 2.51-4 5.24z" fill="#233241"/></g><defs><clipPath id="clip0"><path fill="#fff" d="M0 0h140.13v24H0z"/></clipPath></defs></svg>